<svg width="44" height="46" viewBox="0 0 44 46" fill="none" xmlns="http://www.w3.org/2000/svg">
<path d="M43.9126 23.0574C43.9126 10.5967 34.1419 0.597351 21.9661 0.597351C9.79025 0.597351 0.0195312 10.5967 0.0195312 23.0574C0.0195312 34.2874 7.98642 43.6713 18.5087 45.3635V29.5185H12.9469V23.0574H18.5087V18.1346C18.5087 12.4427 21.8157 9.36598 26.7763 9.36598C29.1814 9.36598 31.7368 9.82749 31.7368 9.82749V15.3656H29.031C26.3253 15.3656 25.4234 17.0578 25.4234 18.9038V23.0574H31.5865L30.6845 29.5185H25.5737V45.2097C35.9457 43.6713 43.9126 34.2874 43.9126 23.0574Z" fill="#262626"/>
<path d="M27.7904 24.9924L28.6923 18.5313H22.5293V14.3777C22.5293 12.5317 23.4312 10.8395 26.1369 10.8395H28.8426V5.30141C28.8426 5.30141 26.2872 4.8399 23.8821 4.8399C18.9216 4.8399 15.6146 7.91662 15.6146 13.6085V18.5313H10.2031V24.9924H15.7649V40.6836C16.8171 40.8374 18.0197 40.9913 19.2222 40.9913C20.4248 40.9913 21.477 40.8374 22.6796 40.6836V24.9924H27.7904Z" fill="white"/>
</svg>
